<svg width="97" height="19" viewBox="0 0 97 19" fill="none" xmlns="http://www.w3.org/2000/svg">
<path d="M10.164 6.55166C10.368 7.06766 10.464 7.58366 10.62 8.09966C11.088 9.59966 11.184 11.1357 10.524 12.6477C10.38 12.9717 10.188 13.1757 9.79197 13.2957C8.98797 13.5597 8.17197 13.5597 7.35597 13.5237C6.73197 13.4877 6.10797 13.3677 5.47197 13.2837C5.29197 13.2597 5.09997 13.1877 5.05197 12.9717C4.99197 12.7677 5.19597 12.4677 5.43597 12.3837C5.49597 12.3717 5.56797 12.3477 5.62797 12.3477C6.19197 12.4317 6.75597 12.4557 7.31997 12.4197C7.66797 12.8277 8.13597 12.6117 8.54397 12.6717C8.60397 12.6717 8.66397 12.6837 8.73597 12.6717C9.82797 12.5157 10.02 12.3597 10.104 11.3517C10.188 10.4637 10.2 9.57566 9.91197 8.72366C9.69597 8.09966 9.67197 7.41566 9.31197 6.77966C8.81997 6.94766 8.36397 7.12766 7.94397 7.39166C7.78797 7.49966 7.63197 7.61966 7.42797 7.55966C7.24797 7.49966 7.04397 7.47566 6.97197 7.25966C6.89997 7.05566 7.03197 6.89966 7.17597 6.76766C7.28397 6.65966 7.41597 6.56366 7.55997 6.50366C8.92797 5.84366 10.272 5.15966 11.724 4.71566C12.036 4.63166 12.312 4.47566 12.612 4.36766C12.816 4.29566 13.032 4.23566 13.248 4.19966C13.368 4.17566 13.512 4.22366 13.524 4.37966C13.536 4.46366 13.512 4.58366 13.452 4.63166C13.14 4.87166 12.84 5.14766 12.432 5.27966C11.832 5.47166 11.268 5.75966 10.692 6.01166C10.488 6.10766 10.332 6.26366 10.164 6.55166Z" fill="black"/>
<path d="M16.548 4.29566C16.62 4.25966 16.692 4.23566 16.764 4.19966C16.884 4.16366 17.004 4.17566 17.1 4.24766C17.136 4.28366 17.184 4.30766 17.232 4.33166C17.628 4.60766 17.64 4.75166 17.556 5.20766C17.472 5.62766 17.484 5.77166 17.496 6.02366C17.568 6.81566 17.64 7.42766 17.736 8.19566C17.736 8.21966 17.76 8.44766 17.784 8.48366C18.132 8.43566 18.492 8.36366 18.804 8.35166C19.224 8.33966 19.368 8.27966 19.824 8.33966C19.596 8.55566 19.26 8.74766 19.008 8.81966C18.696 8.91566 18.552 8.97566 18.168 9.11966C18 9.17966 17.88 9.23966 17.88 9.44366C17.88 9.58766 18.072 10.7877 18.108 11.1837C18.144 11.5557 18.3 13.1277 18.324 13.5717C18.336 13.6437 18.288 13.7157 18.18 13.7397C17.604 13.8717 17.328 13.1277 17.316 12.5157C17.304 12.2037 17.34 11.8437 17.22 11.5677C17.112 11.3277 17.112 11.3997 16.968 11.1717C16.908 11.0757 16.776 10.9437 16.656 10.8237C16.5 10.6557 16.236 10.4757 15.924 10.2117C15.852 10.1517 15.66 9.99566 15.588 9.99566C15.504 9.99566 15.432 10.1397 15.372 10.3197C15.024 11.3997 14.592 12.4677 14.4 13.6677C14.388 13.7517 14.316 13.8117 14.232 13.8117H13.692C13.596 13.8117 13.5 13.7637 13.44 13.6797C13.368 13.5837 13.404 13.5957 13.308 13.4757C13.308 13.4757 13.236 13.3077 13.248 13.2597L13.32 12.8397C13.44 12.3237 13.824 11.2197 13.872 11.0157C14.016 10.5237 14.46 9.38366 14.28 9.31166C14.004 9.19166 14.016 8.91566 14.328 8.78366C14.508 8.69966 14.604 8.56766 14.664 8.38766C14.892 7.72766 15.12 7.15166 15.396 6.53966C15.516 6.27566 15.6 5.96366 15.696 5.73566C15.84 5.41166 15.972 5.11166 16.08 4.77566C16.152 4.54766 16.32 4.37966 16.548 4.29566ZM16.692 8.68766C16.692 8.68766 16.512 7.52366 16.344 7.18766C16.212 7.58366 15.984 8.33966 15.84 8.75966C15.936 8.77166 16.14 8.78366 16.248 8.77166C16.464 8.73566 16.692 8.68766 16.692 8.68766ZM16.62 9.61166C16.572 9.63566 16.272 9.69566 16.236 9.73166C16.212 9.76766 16.332 9.88766 16.368 9.92366C16.524 10.0917 16.74 10.3077 17.052 10.5237C17.064 10.2237 16.932 9.86366 16.824 9.57566L16.62 9.61166Z" fill="black"/>
<path d="M27.9986 8.71166C27.9986 8.71166 27.7586 9.76766 27.6026 10.1037C27.4706 10.3797 27.2666 10.6077 27.0986 10.8597C26.0186 12.5037 24.3986 13.2837 22.5266 13.5957C22.4546 13.6077 22.3826 13.6677 22.2986 13.6677C21.6746 13.6077 20.4866 12.4797 20.3786 11.7957C20.1026 10.1757 20.3906 8.68766 21.3146 7.30766C21.7106 6.71966 22.0106 6.07166 22.4786 5.51966C22.9226 5.00366 23.1986 5.00366 23.7026 5.43566C24.0146 5.67566 24.1946 5.99966 24.2186 6.39566C24.2786 7.04366 24.2906 7.23566 24.0626 7.83566C23.9906 8.06366 23.8226 8.21966 23.5706 8.20766C23.2706 8.20766 23.6186 7.21166 23.5346 6.93566C23.4866 6.09566 22.9226 6.01166 22.7906 6.22766C22.7066 6.35966 22.6226 6.49166 22.5146 6.61166C21.2906 8.14766 20.9906 9.74366 21.1226 11.2437C21.1946 12.2517 22.0826 12.8757 23.0906 12.7437C24.6506 12.5637 25.5626 11.7117 26.3666 10.5237C26.3906 10.4997 26.9306 9.41966 26.9426 9.38366C27.2546 8.43566 27.6146 8.41166 27.6146 8.41166C27.8306 8.27966 28.0946 8.48366 27.9986 8.71166Z" fill="black"/>
<path d="M34.1396 11.6757C33.2036 11.9517 32.3396 11.7477 31.4996 11.3037C31.1276 11.0997 30.7316 10.9437 30.3356 10.7877C29.9756 10.6557 29.6036 10.9317 29.6036 11.3517C29.6036 11.8317 29.6516 12.3117 29.6396 12.7917C29.6396 12.9957 29.4476 13.0917 29.2556 13.0797C29.1476 13.0797 28.9796 13.0197 28.9436 12.9357C28.8476 12.7317 28.7396 12.4917 28.7396 12.2637C28.7156 11.4717 28.7396 10.6797 28.7396 9.88766C28.7516 9.04766 28.8596 8.19566 28.6196 7.35566C28.4876 6.87566 28.5956 6.39566 28.7996 5.93966C28.8956 5.69966 29.0516 5.53166 29.3156 5.49566C29.4836 5.48366 29.7236 5.78366 29.7116 6.03566C29.6996 6.63566 29.6756 7.24766 29.6636 7.84766C29.6516 8.27966 29.6516 8.69966 29.6516 9.11966C29.6636 9.34766 30.0356 9.49166 30.2276 9.34766C30.4196 9.20366 30.6116 9.05966 30.7796 8.89166C31.6916 7.99166 32.5796 7.07966 33.4796 6.17966C33.6476 6.01166 33.8396 5.84366 34.0436 5.72366C34.1036 5.68766 34.2836 5.73566 34.3556 5.80766C34.4156 5.87966 34.4636 6.04766 34.4276 6.13166C34.3676 6.29966 34.2596 6.45566 34.1396 6.58766C33.5996 7.16366 33.0476 7.72766 32.4956 8.29166C32.1476 8.63966 31.7876 8.96366 31.4516 9.31166C31.2716 9.49166 30.7316 9.99566 30.7316 9.99566C30.7316 9.99566 31.3796 10.1877 31.6196 10.3437C32.1356 10.6797 32.6756 10.9677 33.2756 11.0997C33.5636 11.1597 33.8756 11.1477 34.1636 11.1117C34.5476 11.0637 34.8476 10.8597 34.9676 10.4637C34.9676 10.4637 35.2076 10.9557 34.7996 11.3517C34.6676 11.4837 34.1396 11.6757 34.1396 11.6757Z" fill="black"/>
<path d="M38.6092 4.11566C38.6812 4.07966 38.7532 4.05566 38.8252 4.01966C38.9452 3.98366 39.0652 3.99566 39.1612 4.06766C39.1972 4.10366 39.2452 4.12766 39.2932 4.15166C39.6892 4.42766 39.7012 4.57166 39.6172 5.02766C39.5332 5.44766 39.5452 5.59166 39.5572 5.84366C39.6292 6.63566 39.7012 7.24766 39.7972 8.01566C39.7972 8.03966 39.8212 8.26766 39.8452 8.30366C40.1932 8.25566 40.5532 8.18366 40.8652 8.17166C41.2852 8.15966 41.4292 8.09966 41.8852 8.15966C41.6572 8.37566 41.3212 8.56766 41.0692 8.63966C40.7572 8.73566 40.6132 8.79566 40.2292 8.93966C40.0612 8.99966 39.9412 9.05966 39.9412 9.26366C39.9412 9.40766 40.1332 10.6077 40.1692 11.0037C40.2052 11.3757 40.3612 12.9477 40.3852 13.3917C40.3972 13.4637 40.3492 13.5357 40.2412 13.5597C39.6652 13.6917 39.3892 12.9477 39.3772 12.3357C39.3652 12.0237 39.4012 11.6637 39.2812 11.3877C39.1732 11.1477 39.1732 11.2197 39.0292 10.9917C38.9692 10.8957 38.8372 10.7637 38.7172 10.6437C38.5612 10.4757 38.2972 10.2957 37.9852 10.0317C37.9132 9.97166 37.7212 9.81566 37.6492 9.81566C37.5652 9.81566 37.4932 9.95966 37.4332 10.1397C37.0852 11.2197 36.6532 12.2877 36.4612 13.4877C36.4492 13.5717 36.3772 13.6317 36.2932 13.6317H35.7532C35.6572 13.6317 35.5612 13.5837 35.5012 13.4997C35.4292 13.4037 35.4652 13.4157 35.3692 13.2957C35.3692 13.2957 35.2972 13.1277 35.3092 13.0797L35.3812 12.6597C35.5012 12.1437 35.8852 11.0397 35.9332 10.8357C36.0772 10.3437 36.5212 9.20366 36.3412 9.13166C36.0652 9.01166 36.0772 8.73566 36.3892 8.60366C36.5692 8.51966 36.6652 8.38766 36.7252 8.20766C36.9532 7.54766 37.1812 6.97166 37.4572 6.35966C37.5772 6.09566 37.6612 5.78366 37.7572 5.55566C37.9012 5.23166 38.0332 4.93166 38.1412 4.59566C38.2132 4.36766 38.3812 4.19966 38.6092 4.11566ZM38.7532 8.50766C38.7532 8.50766 38.5732 7.34366 38.4052 7.00766C38.2732 7.40366 38.0452 8.15966 37.9012 8.57966C37.9972 8.59166 38.2012 8.60366 38.3092 8.59166C38.5252 8.55566 38.7532 8.50766 38.7532 8.50766ZM38.6812 9.43166C38.6332 9.45566 38.3332 9.51566 38.2972 9.55166C38.2732 9.58766 38.3932 9.70766 38.4292 9.74366C38.5852 9.91166 38.8012 10.1277 39.1132 10.3437C39.1252 10.0437 38.9932 9.68366 38.8852 9.39566L38.6812 9.43166Z" fill="black"/>
<path d="M42.2645 8.51966C43.1405 8.31566 42.9365 7.60766 42.9965 7.06766C43.0445 6.67166 43.1885 6.49166 43.5485 6.41966C43.7885 6.38366 43.9325 6.43166 44.0765 6.63566C44.3765 7.06766 44.4605 7.06766 44.9405 6.81566C45.6845 6.41966 46.4645 6.10766 47.2805 5.90366C48.0005 5.71166 48.4805 6.23966 48.2405 7.00766C48.0365 7.66766 47.7365 8.27966 47.3645 8.87966C47.0405 9.43166 46.7285 9.97166 46.2485 10.4037C46.1765 10.4517 46.1405 10.5597 46.1645 10.6797C47.1005 11.4837 48.0965 12.2517 48.7445 13.4037C48.4445 13.6677 48.1445 13.6917 47.8445 13.3917C47.2445 12.8037 46.6325 12.2157 46.0565 11.6157C45.8165 11.3637 45.5405 11.2077 45.2765 11.3877C45.0245 11.5557 44.7125 11.7357 44.7965 12.1917C44.9165 12.8037 44.8805 13.4277 44.8685 14.0397C44.8565 14.2917 44.8325 14.5797 44.4845 14.5557C44.1845 14.5437 43.9085 14.3877 43.9565 14.0397C44.0645 13.0557 43.7405 12.1197 43.7285 11.1477C43.7165 10.3557 43.4525 9.56366 43.2845 8.78366C43.2365 8.51966 43.0325 8.48366 42.8045 8.55566C42.6485 8.59166 42.5285 8.78366 42.2645 8.51966ZM44.3765 8.68766C44.3405 9.25166 44.4605 9.71966 44.5325 10.1997C44.5925 10.6557 44.9525 10.7517 45.3005 10.4637C45.6485 10.1877 45.9485 9.79166 46.1405 9.45566C46.5485 8.71166 46.9925 7.97966 47.2685 7.16366C47.3165 7.00766 47.4605 6.86366 47.3285 6.69566C47.1725 6.51566 46.9805 6.59966 46.8005 6.65966C46.2965 6.85166 45.7685 7.00766 45.2885 7.23566C44.6645 7.53566 44.1245 7.91966 44.3765 8.68766Z" fill="black"/>
<path d="M49.6158 11.0877C49.6158 10.9917 49.6158 10.0197 49.6398 9.94766C49.8438 9.13166 49.9758 8.31566 50.2038 7.52366C50.3478 7.00766 50.4918 5.81966 50.9598 5.50766C52.1358 4.72766 51.1638 6.95966 51.4278 7.28366C51.7518 7.67966 56.8398 5.43566 56.6478 6.52766C56.5998 6.80366 53.6358 7.63166 53.2158 7.79966C52.7478 7.99166 52.1358 8.13566 51.7278 8.44766C51.1038 8.89166 51.4278 8.61566 51.6438 9.09566C51.3438 9.31166 50.9478 9.31166 50.8998 9.75566C51.5958 9.74366 52.3158 9.83966 53.0118 9.71966C53.7078 9.56366 54.3318 9.31166 55.0638 9.21566C55.3278 9.16766 56.4318 8.87966 56.4198 9.39566C56.4078 9.80366 55.0878 9.97166 54.7998 10.1037C53.6358 10.5597 52.3278 10.7157 51.1998 11.1717C50.8518 11.3037 50.6838 10.8837 50.7438 11.5197C50.7798 11.8317 50.9238 11.8437 51.1398 12.0117C51.7038 12.4317 52.4238 12.3957 53.0358 12.1797C53.5758 11.9877 54.1158 11.6517 54.6198 11.3877C55.1718 11.0997 55.4358 10.6557 55.9038 10.3557C56.5998 9.91166 56.4558 10.4517 56.0718 10.9917C55.6758 11.5677 55.1478 12.0117 54.5718 12.3597C53.5638 12.9717 52.2078 13.5837 51.0078 13.3197C50.4318 13.1877 50.2158 12.8277 49.8918 12.3957C49.8318 12.2877 49.7718 12.1677 49.7598 12.0237C49.7598 12.1917 49.6398 11.7357 49.6158 11.0877Z" fill="black"/>
<path d="M57.8672 13.7157C57.8552 13.7157 57.8552 13.7157 57.8552 13.7037C57.6152 13.6077 57.4952 13.3557 57.5792 13.1157C57.6632 12.8517 57.6992 12.5757 57.6872 12.2997C57.6752 10.9677 57.6152 9.64766 57.8432 8.32766C57.8312 7.53566 57.9272 7.40366 57.7592 6.94766C57.6512 6.65966 57.6632 6.35966 57.9032 6.11966C58.0352 5.99966 58.1912 5.93966 58.3592 5.97566C58.5512 5.99966 58.6352 6.14366 58.6592 6.32366C58.6952 6.57566 58.7192 6.85166 58.7192 7.11566C58.6952 8.50766 58.8032 9.89966 58.5992 11.2797C58.5392 11.7117 58.6232 12.1557 58.5512 12.5757C58.5272 12.6957 58.5632 12.7917 58.5992 12.8757C58.8632 13.3677 58.3832 13.9197 57.8672 13.7157Z" fill="black"/>
<path d="M63.0608 11.1837C63.0008 11.4717 62.7848 11.5197 62.6288 11.6277C62.4368 11.7597 62.2568 11.9037 62.1008 12.0837C61.9568 12.2517 61.8968 12.4677 61.9808 12.6837C62.0648 12.9117 62.2928 12.8877 62.4848 12.8877C63.5768 12.8517 64.3928 12.3117 64.9568 11.4237C65.3888 10.7517 65.1968 10.1397 64.5608 9.67166C64.0088 9.26366 63.3728 9.03566 62.7368 8.78366C62.3528 8.62766 61.7168 7.76366 61.7168 7.34366C61.7288 7.13966 61.8248 6.97166 61.9568 6.82766C62.3288 6.43166 62.7608 6.14366 63.2408 5.92766C63.9608 5.61566 64.6808 5.26766 65.4728 5.13566C65.7728 5.08766 66.0368 5.03966 66.1568 5.35166C66.2888 5.65166 66.3008 5.96366 66.0008 6.20366C65.8928 6.28766 65.7728 6.34766 65.6408 6.38366C64.9928 6.57566 64.4048 6.94766 63.7088 6.94766C63.4808 6.94766 63.3128 7.17566 63.0728 7.21166C62.9408 7.23566 62.8088 7.30766 62.8208 7.48766C62.8328 7.64366 62.9648 7.70366 63.0968 7.75166C63.6368 7.94366 64.1648 8.18366 64.6808 8.45966C66.0968 9.21566 66.3728 10.6797 65.5448 11.8917C65.1248 12.5037 64.5128 12.8757 63.9248 13.2837C63.6968 13.4277 63.4328 13.5237 63.2648 13.7517C63.1808 13.8717 63.0488 13.8957 62.9048 13.9077C62.7488 13.9077 62.5928 13.9197 62.4368 13.9077C61.2128 13.8837 61.0448 13.7157 61.1528 12.5157C61.1888 12.1917 61.5128 12.0117 61.6208 11.7237C61.7528 11.3877 61.9928 11.3037 62.3048 11.3277C62.5568 11.3517 62.7488 11.0877 63.0608 11.1837Z" fill="black"/>
<path d="M67.0215 12.3833C67.0215 12.1294 67.084 11.9302 67.209 11.7857C67.3379 11.6411 67.5195 11.5689 67.7539 11.5689C67.9961 11.5689 68.1816 11.6431 68.3105 11.7915C68.4433 11.9361 68.5097 12.1333 68.5097 12.3833C68.5097 12.6333 68.4433 12.8325 68.3105 12.981C68.1777 13.1255 67.9922 13.1978 67.7539 13.1978C67.5234 13.1978 67.3437 13.1255 67.2148 12.981C67.0859 12.8365 67.0215 12.6372 67.0215 12.3833Z" fill="black"/>
<path d="M77.9908 8.71166C77.9908 8.71166 77.7508 9.76766 77.5948 10.1037C77.4628 10.3797 77.2588 10.6077 77.0908 10.8597C76.0108 12.5037 74.3908 13.2837 72.5188 13.5957C72.4468 13.6077 72.3748 13.6677 72.2908 13.6677C71.6668 13.6077 70.4788 12.4797 70.3708 11.7957C70.0948 10.1757 70.3828 8.68766 71.3068 7.30766C71.7028 6.71966 72.0028 6.07166 72.4708 5.51966C72.9148 5.00366 73.1908 5.00366 73.6948 5.43566C74.0068 5.67566 74.1868 5.99966 74.2108 6.39566C74.2708 7.04366 74.2828 7.23566 74.0548 7.83566C73.9828 8.06366 73.8148 8.21966 73.5628 8.20766C73.2628 8.20766 73.6108 7.21166 73.5268 6.93566C73.4788 6.09566 72.9148 6.01166 72.7828 6.22766C72.6988 6.35966 72.6148 6.49166 72.5068 6.61166C71.2828 8.14766 70.9828 9.74366 71.1148 11.2437C71.1868 12.2517 72.0748 12.8757 73.0828 12.7437C74.6428 12.5637 75.5548 11.7117 76.3588 10.5237C76.3828 10.4997 76.9228 9.41966 76.9348 9.38366C77.2468 8.43566 77.6068 8.41166 77.6068 8.41166C77.8228 8.27966 78.0868 8.48366 77.9908 8.71166Z" fill="black"/>
<path d="M83.5421 8.47166L83.6141 9.91166C83.4461 11.0397 83.1941 12.9237 82.0541 13.5717C80.6861 14.3517 79.3781 12.5277 79.1861 11.2557C78.9941 9.91166 78.4301 8.42366 79.0781 7.15166C79.9301 5.43566 81.2381 5.26766 82.8101 6.07166C82.9421 6.23966 82.9901 6.33566 83.0141 6.35966C83.4101 7.01966 83.5181 7.66766 83.5421 8.47166ZM82.4981 9.31166C82.5941 8.41166 82.7141 5.98766 81.1541 6.47966C79.5221 6.98366 79.7501 11.9517 81.1781 12.6837C81.1781 12.6957 81.1901 12.6957 81.2021 12.6957L81.2141 12.6717C82.1381 11.7597 82.3661 10.5597 82.4981 9.31166Z" fill="black"/>
<path d="M83.5614 9.73166C84.0654 9.35966 84.3774 8.73566 84.9054 8.42366C85.8054 7.91966 85.9374 8.44766 86.2974 9.19166C86.3574 8.20766 87.1254 6.57566 88.0374 7.79966C88.6014 8.55566 89.0574 10.2597 89.1894 11.1717C89.8014 10.7877 90.2574 9.31166 90.4494 8.59166C90.6054 8.06366 90.7974 6.32366 91.6974 7.31966C92.0694 7.73966 92.0214 9.10766 92.0934 9.74366C92.1654 10.3917 92.1894 11.0517 92.2854 11.6997C92.3574 12.1677 92.2254 12.8757 92.4294 13.2957C91.1574 13.6317 91.3014 10.2357 91.2414 9.41966C90.4374 9.82766 90.2214 13.2357 89.2134 13.1397C88.6254 13.0917 88.5054 11.6877 88.3494 11.2557C88.0734 10.4757 87.9774 9.65966 87.4014 9.05966C87.1494 10.1997 86.9574 11.3397 86.7054 12.4677C86.5854 12.9597 86.4654 13.6197 86.0094 13.6797C85.4214 13.7637 85.4094 13.2477 85.3374 12.8997C85.2174 12.2157 85.8054 9.56366 85.0014 9.50366C85.0614 9.51566 84.1014 10.0677 84.0414 10.1157L83.5614 9.73166Z" fill="black"/>
</svg>
