<svg width="74" height="74" viewBox="0 0 74 74" fill="none" xmlns="http://www.w3.org/2000/svg">
<path d="M59.749 45.6983C60.2487 47.1467 60.3813 48.6732 60.3304 50.2387C60.3049 51.0214 60.2795 51.8041 60.0705 52.6259C59.8615 53.4476 59.6525 54.2694 58.7094 55.2472L57.7662 56.225L56.73 55.8622C55.6542 55.3136 54.7874 53.9432 53.7512 53.5804C53.5281 53.4335 53.3841 53.6584 53.6072 53.8054C53.7907 53.7664 53.9743 53.7273 54.0533 54.0992C54.3159 54.432 54.9851 54.8728 55.1036 55.4306L55.5638 56.6931L54.8042 57.6319C54.3326 58.1208 54.0051 58.3847 53.494 58.6877C52.9829 58.9907 52.4718 59.2936 51.9212 59.4107C50.8595 59.8307 49.0891 59.624 48.1969 59.0363C47.0816 58.3017 46.5169 57.4501 46.1753 56.7454C45.7941 55.8547 45.4525 55.15 45.0714 54.2594L44.9923 53.8875C44.9528 53.7016 44.8738 53.3297 44.8343 53.1438C44.7947 52.9579 44.7947 52.9579 44.5717 52.811C44.3486 52.664 44.1651 52.703 43.798 52.7811C43.4309 52.8591 42.6968 53.0151 42.3297 53.0932C40.2713 53.3364 38.1338 53.2077 36.3239 52.8151C35.3272 52.6383 34.435 52.0506 33.3987 51.6879C32.3625 51.3252 31.5098 50.9234 30.6175 50.3357C29.7253 49.7481 28.9771 48.9355 28.2289 48.1228C28.1894 47.9369 28.0058 47.9759 27.9663 47.79C27.8223 48.0149 27.6387 48.0539 27.4947 48.2789C26.9836 48.5818 26.3681 49.2957 25.5294 49.8626C24.2982 51.2903 23.1066 52.9039 22.3215 54.6254C21.929 55.4862 21.5365 56.3469 21.144 57.2077C20.7514 58.0684 20.582 59.0761 20.4125 60.0838C20.243 61.0915 20.0736 62.0991 20.0876 63.0678C19.9182 64.0755 20.1553 65.1911 20.3529 66.1207L19.9858 66.1987C19.3675 64.1925 18.7098 62.0004 18.6421 59.8771C18.5885 58.7225 18.758 57.7148 18.8879 56.5212C19.0574 55.5136 19.3709 54.2809 19.7239 53.2342C20.4299 51.1409 21.359 49.1944 22.6551 47.1699C23.2312 46.2702 23.9908 45.3314 24.6064 44.6175C25.4055 43.8647 26.2046 43.1118 27.1873 42.32L29.4152 41.0691L30.1125 43.4472C30.4541 44.1519 30.6517 45.0815 30.9933 45.7863C31.3349 46.491 31.8601 47.1567 32.2412 48.0473C32.7664 48.713 33.2915 49.3787 34.0002 50.0054C34.6694 50.4461 35.7057 50.8089 36.4793 50.8388C38.2497 51.0454 40.1641 51.0272 41.7764 50.4901C42.327 50.3731 42.5106 50.3341 43.0217 50.0311C43.5723 49.9141 44.3064 49.758 45.0801 49.7879C45.8538 49.8178 46.746 50.4055 47.0876 51.1102C47.6128 51.7759 47.7313 52.3337 47.8894 53.0774L47.8104 52.7055C48.4541 53.929 49.2813 55.1135 49.911 55.3683C50.1341 55.5153 50.3176 55.4762 50.5011 55.4372C50.6847 55.3982 50.8287 55.1733 50.8287 55.1733C50.7496 54.8014 50.8937 54.5765 50.8146 54.2046C50.9191 53.7937 50.9446 53.011 51.5997 52.4831C52.2548 51.9552 52.8844 52.21 53.2515 52.132C54.2087 52.1229 55.1659 52.1137 56.1626 52.2905C56.2276 51.6937 56.4366 50.872 56.4621 50.0892C56.592 48.8956 56.4989 47.5551 56.6288 46.3615C53.9635 42.8471 50.053 39.7917 46.1425 36.7363C44.0954 35.2281 41.9044 33.9448 39.7133 32.6616C37.5223 31.3783 35.3312 30.0951 32.9566 28.8508L32.5895 28.9289L32.3919 27.9992C31.8132 26.1789 30.7234 24.6616 29.1224 23.4472C28.4137 22.8205 27.561 22.4188 26.7083 22.0171L26.5248 22.0561C26.6829 22.7998 26.6969 23.7684 26.855 24.5122C27.0272 26.2246 27.4224 28.0839 27.8176 29.9432L28.0942 31.2447L27.0721 31.8506C25.5783 32.9454 24.0846 34.0403 22.8534 35.4679C21.6222 36.8956 20.3911 38.3233 19.3829 39.8979C17.4062 43.233 15.6921 46.901 14.7912 50.7848L14.201 50.7159C14.2888 46.6163 15.3337 42.5076 17.0084 38.6537C18.5785 35.2106 21.0013 32.1693 24.0933 29.5688C23.7771 28.0814 23.4609 26.5939 23.1448 25.1065C22.7496 23.2472 22.5379 21.3489 22.4702 19.2256L22.3235 16.7305L24.5401 17.231C25.3532 17.4468 25.7598 17.5547 26.3895 17.8095C27.0191 18.0644 27.6488 18.3192 28.0949 18.613C29.1707 19.1617 30.286 19.8963 31.2572 20.8558C33.1207 22.403 34.2246 24.889 34.5153 27.1592C34.7384 27.3061 35.1845 27.6 35.4076 27.7469L53.7961 5.95984L40.6424 30.7151C42.873 32.1843 44.92 33.6925 47.1901 35.3476C51.4677 38.325 55.5618 41.3414 59.4469 45.1795L59.7094 45.5124L59.749 45.6983ZM41.5286 38.4943C41.9606 37.8195 40.7663 36.713 39.2049 35.6846C37.6435 34.6562 35.9776 34.0386 35.9776 34.0386C35.9776 34.0386 37.0956 37.4933 38.657 38.5217C40.2579 39.7361 41.1361 39.3551 41.5286 38.4943Z" fill="black"/>
</svg>
